<svg width="1366" height="768" viewBox="0 0 1366 768" fill="none" xmlns="http://www.w3.org/2000/svg">
<rect width="1366" height="768" fill="url(#paint0_linear)"/>
<path d="M1028.49 857.039L971.977 724.243C1026.41 704.133 1077.38 677.089 1124.54 645.537L1028.49 857.039ZM768.796 521.062L636 464.546L847.503 368.503C815.951 415.657 788.906 466.626 768.796 521.062ZM1239.65 226.345C1249.36 226.345 1258.03 226.345 1265.31 228.079C1271.2 276.274 1264.61 375.437 1150.89 489.163C1091.94 548.453 1021.56 593.874 942.506 624.04L867.96 551.227C899.858 471.134 945.279 400.748 1003.88 342.152C1099.57 246.455 1184.87 226.345 1239.65 226.345ZM1239.65 157C1171 157 1066.98 180.924 954.641 293.263C878.708 369.196 833.287 452.757 803.815 525.916C794.107 551.921 800.695 580.352 819.765 599.769L893.617 673.275C906.793 686.45 924.476 694.425 942.852 694.425C950.827 694.425 959.148 692.345 967.123 689.224C1041.32 660.793 1123.84 614.331 1199.78 538.398C1396.02 342.152 1322.52 170.522 1322.52 170.522C1322.52 170.522 1290.97 157 1239.65 157ZM1077.38 415.657C1050.34 388.613 1050.34 344.579 1077.38 317.534C1104.43 290.489 1148.46 290.489 1175.51 317.534C1202.2 344.579 1202.55 388.613 1175.51 415.657C1148.46 442.702 1104.43 442.702 1077.38 415.657ZM881.135 660.793L832.247 611.904L881.135 660.793ZM789.6 850.452L915.808 724.243C904.019 721.123 892.577 715.922 882.175 708.641L740.711 850.452H789.6ZM642.588 850.452H691.476L856.864 685.41L807.629 636.522L642.588 801.563V850.452ZM642.588 752.328L784.399 610.864C777.117 600.462 771.917 589.367 768.796 577.232L642.588 703.44V752.328Z" fill="#1E40C8" fill-opacity="0.25"/>
<defs>
<linearGradient id="paint0_linear" x1="683" y1="0" x2="683" y2="768" gradientUnits="userSpaceOnUse">
<stop stop-color="#E9F0FA"/>
<stop offset="0.385417" stop-color="#F0F5FC"/>
<stop offset="0.692708" stop-color="#FAFCFE"/>
<stop offset="1" stop-color="#FAFBFE"/>
</linearGradient>
</defs>
</svg>
