<svg width="72" height="72" viewBox="0 0 72 72" fill="none" xmlns="http://www.w3.org/2000/svg">
<path d="M40.3701 72L34.5571 58.3412C40.1562 56.2728 45.3986 53.4911 50.2487 50.2458L40.3701 72ZM13.6588 37.4429L0 31.6299L21.7542 21.7513C18.5089 26.6014 15.7272 31.8438 13.6588 37.4429ZM70.6121 1.38791C70.6121 1.38791 52.9591 -6.17614 32.774 14.0125C24.9639 21.8226 20.2921 30.4173 17.2607 37.9422C16.2622 40.6169 16.9398 43.5412 18.9012 45.5383L26.4974 53.0988C28.4588 55.0959 31.3832 55.7378 34.0579 54.7393C41.6897 51.8149 50.1774 47.0361 57.9875 39.226C78.1726 19.0409 70.6121 1.38791 70.6121 1.38791ZM45.3986 26.6014C42.6169 23.8197 42.6169 19.2906 45.3986 16.5089C48.1803 13.7272 52.7094 13.7272 55.4911 16.5089C58.2372 19.2906 58.2728 23.8197 55.4911 26.6014C52.7094 29.3831 48.1803 29.3831 45.3986 26.6014ZM15.7986 71.3224L28.7798 58.3412C27.5672 58.0202 26.3904 57.4853 25.3205 56.7364L10.7701 71.3224H15.7986ZM0.677591 71.3224H5.70603L22.7171 54.347L17.653 49.3185L0.677591 66.294V71.3224ZM0.677591 61.2299L15.2636 46.6795C14.5147 45.6096 13.9798 44.4684 13.6588 43.2202L0.677591 56.2014V61.2299Z" fill="#1E40C8"/>
</svg>
