<svg width="137" height="50" viewBox="0 0 137 50" fill="none" xmlns="http://www.w3.org/2000/svg">
<path d="M65.0392 29H69.4192V32H61.1192V17.9H65.0392V29ZM70.3034 26.38C70.3034 25.22 70.5101 24.2067 70.9234 23.34C71.3501 22.4733 71.9234 21.8067 72.6434 21.34C73.3768 20.8733 74.1901 20.64 75.0834 20.64C75.8568 20.64 76.5234 20.7933 77.0834 21.1C77.6434 21.4067 78.0768 21.82 78.3834 22.34V20.78H82.3034V32H78.3834V30.44C78.0768 30.96 77.6368 31.3733 77.0634 31.68C76.5034 31.9867 75.8434 32.14 75.0834 32.14C74.1901 32.14 73.3768 31.9067 72.6434 31.44C71.9234 30.9733 71.3501 30.3067 70.9234 29.44C70.5101 28.56 70.3034 27.54 70.3034 26.38ZM78.3834 26.38C78.3834 25.66 78.1834 25.0933 77.7834 24.68C77.3968 24.2667 76.9168 24.06 76.3434 24.06C75.7568 24.06 75.2701 24.2667 74.8834 24.68C74.4968 25.08 74.3034 25.6467 74.3034 26.38C74.3034 27.1 74.4968 27.6733 74.8834 28.1C75.2701 28.5133 75.7568 28.72 76.3434 28.72C76.9168 28.72 77.3968 28.5133 77.7834 28.1C78.1834 27.6867 78.3834 27.1133 78.3834 26.38ZM96.0172 20.78V32H92.0772V30.4C91.7438 30.9067 91.2838 31.32 90.6972 31.64C90.1105 31.9467 89.4372 32.1 88.6772 32.1C87.3705 32.1 86.3372 31.6733 85.5772 30.82C84.8305 29.9533 84.4572 28.78 84.4572 27.3V20.78H88.3572V26.8C88.3572 27.44 88.5238 27.9467 88.8572 28.32C89.2038 28.68 89.6572 28.86 90.2172 28.86C90.7905 28.86 91.2438 28.68 91.5772 28.32C91.9105 27.9467 92.0772 27.44 92.0772 26.8V20.78H96.0172ZM105.588 20.68C106.881 20.68 107.908 21.1133 108.668 21.98C109.428 22.8333 109.808 23.9933 109.808 25.46V32H105.888V25.98C105.888 25.34 105.721 24.84 105.388 24.48C105.055 24.1067 104.608 23.92 104.048 23.92C103.461 23.92 103.001 24.1067 102.668 24.48C102.335 24.84 102.168 25.34 102.168 25.98V32H98.2481V20.78H102.168V22.38C102.515 21.8733 102.981 21.4667 103.568 21.16C104.155 20.84 104.828 20.68 105.588 20.68ZM111.319 26.38C111.319 25.22 111.559 24.2067 112.039 23.34C112.519 22.4733 113.186 21.8067 114.039 21.34C114.906 20.8733 115.892 20.64 116.999 20.64C118.426 20.64 119.626 21.0333 120.599 21.82C121.572 22.5933 122.199 23.68 122.479 25.08H118.319C118.079 24.3467 117.612 23.98 116.919 23.98C116.426 23.98 116.032 24.1867 115.739 24.6C115.459 25 115.319 25.5933 115.319 26.38C115.319 27.1667 115.459 27.7667 115.739 28.18C116.032 28.5933 116.426 28.8 116.919 28.8C117.626 28.8 118.092 28.4333 118.319 27.7H122.479C122.199 29.0867 121.572 30.1733 120.599 30.96C119.626 31.7467 118.426 32.14 116.999 32.14C115.892 32.14 114.906 31.9067 114.039 31.44C113.186 30.9733 112.519 30.3067 112.039 29.44C111.559 28.5733 111.319 27.5533 111.319 26.38ZM131.487 20.68C132.767 20.68 133.781 21.1133 134.527 21.98C135.287 22.8333 135.667 23.9933 135.667 25.46V32H131.747V25.98C131.747 25.34 131.581 24.84 131.247 24.48C130.914 24.1067 130.467 23.92 129.907 23.92C129.321 23.92 128.861 24.1067 128.527 24.48C128.194 24.84 128.027 25.34 128.027 25.98V32H124.107V17.2H128.027V22.38C128.374 21.8733 128.841 21.4667 129.427 21.16C130.027 20.84 130.714 20.68 131.487 20.68Z" fill="#0D2260"/>
<path d="M28.0348 50L23.998 40.5147C27.8862 39.0783 31.5268 37.1466 34.8949 34.8929L28.0348 50ZM9.48528 26.002L0 21.9652L15.1071 15.1051C12.8534 18.4732 10.9217 22.1138 9.48528 26.002ZM49.0362 0.963829C49.0362 0.963829 36.7771 -4.28898 22.7597 9.7309C17.336 15.1546 14.0917 21.1231 11.9866 26.3487C11.2932 28.2061 11.7637 30.2369 13.1258 31.6238L18.4009 36.8742C19.7631 38.261 21.7939 38.7068 23.6513 38.0134C28.9512 35.9826 34.8454 32.664 40.2691 27.2403C54.2865 13.2229 49.0362 0.963829 49.0362 0.963829ZM31.5268 18.4732C29.5951 16.5415 29.5951 13.3962 31.5268 11.4645C33.4585 9.53277 36.6038 9.53277 38.5355 11.4645C40.4425 13.3962 40.4672 16.5415 38.5355 18.4732C36.6038 20.4049 33.4585 20.4049 31.5268 18.4732ZM10.9712 49.5294L19.986 40.5147C19.1439 40.2918 18.3267 39.9203 17.5837 39.4003L7.47925 49.5294H10.9712ZM0.470549 49.5294H3.96252L15.7758 37.741L12.259 34.249L0.470549 46.0375V49.5294ZM0.470549 42.5207L10.5997 32.4163C10.0797 31.6733 9.70817 30.8808 9.48528 30.014L0.470549 39.0288V42.5207Z" fill="#1E40C8"/>
</svg>
