<svg width="530" height="373" viewBox="0 0 530 373" fill="none" xmlns="http://www.w3.org/2000/svg">
<g filter="url(#filter0_di)">
<path fill-rule="evenodd" clip-rule="evenodd" d="M42.3529 40C42.3529 28.9543 51.3072 20 62.3529 20H467.941C478.986 20 487.941 28.9543 487.941 40V292.9C487.941 303.945 478.986 312.9 467.941 312.9H62.3529C51.3072 312.9 42.3529 303.945 42.3529 292.9V40Z" fill="white"/>
</g>
<path fill-rule="evenodd" clip-rule="evenodd" d="M0 310.237H529.411V313.788H0V310.237Z" fill="white"/>
<path fill-rule="evenodd" clip-rule="evenodd" d="M217.941 310.237H312.353V310.237C312.353 311.708 311.161 312.9 309.69 312.9H220.604C219.133 312.9 217.941 311.708 217.941 310.237V310.237Z" fill="url(#paint0_linear)" fill-opacity="0.5"/>
<path fill-rule="evenodd" clip-rule="evenodd" d="M444.706 319.999C516.718 319.999 529.411 313.786 529.411 313.786L265.588 312.899L0 313.787C0 313.787 12.7272 320 84.7058 320H265.588V319.999H444.706Z" fill="url(#paint1_linear)"/>
<path fill-rule="evenodd" clip-rule="evenodd" d="M58.1782 35.4431H471.903V297.208H58.1782V35.4431Z" fill="#EBF3F9"/>
<mask id="mask0" mask-type="alpha" maskUnits="userSpaceOnUse" x="58" y="35" width="414" height="263">
<path fill-rule="evenodd" clip-rule="evenodd" d="M58.1782 35.4431H471.903V297.208H58.1782V35.4431Z" fill="white"/>
</mask>
<g mask="url(#mask0)">
<rect width="417.865" height="261.194" transform="matrix(-1 0 0 1 473.922 35.6863)" fill="#EBF3F9"/>
</g>
<path d="M304.257 208.528L308.48 203.495L311.927 206.388L303.924 215.925L287.723 202.33L291.502 197.826L304.257 208.528ZM306.322 199.953C304.989 198.835 304.024 197.62 303.427 196.31C302.842 194.984 302.629 193.682 302.787 192.405C302.958 191.112 303.474 189.953 304.335 188.926C305.081 188.038 305.9 187.419 306.792 187.072C307.684 186.724 308.577 186.624 309.47 186.773L307.678 185.269L311.457 180.765L324.35 191.583L320.57 196.087L318.778 194.583C319.08 195.437 319.13 196.341 318.93 197.296C318.742 198.235 318.282 199.141 317.549 200.014C316.688 201.041 315.636 201.75 314.392 202.143C313.162 202.52 311.843 202.536 310.436 202.191C309.026 201.817 307.655 201.072 306.322 199.953ZM314.113 190.669C313.285 189.974 312.441 189.658 311.581 189.719C310.733 189.765 310.033 190.117 309.48 190.776C308.914 191.45 308.682 192.208 308.785 193.051C308.871 193.881 309.336 194.65 310.179 195.357C311.006 196.051 311.851 196.382 312.714 196.349C313.562 196.303 314.269 195.943 314.834 195.269C315.387 194.61 315.613 193.859 315.51 193.016C315.421 192.158 314.955 191.376 314.113 190.669ZM324.68 165.007L337.572 175.825L333.774 180.352L331.935 178.81C332.196 179.681 332.227 180.608 332.029 181.591C331.816 182.561 331.343 183.482 330.61 184.356C329.35 185.857 327.864 186.633 326.15 186.683C324.435 186.706 322.727 186.003 321.026 184.577L313.534 178.29L317.294 173.809L324.212 179.613C324.947 180.23 325.69 180.527 326.44 180.504C327.188 180.453 327.832 180.105 328.372 179.462C328.925 178.803 329.155 178.109 329.063 177.379C328.955 176.636 328.534 175.956 327.798 175.339L320.881 169.534L324.68 165.007ZM333.793 153.913C335.04 152.427 336.528 151.665 338.257 151.627C339.97 151.577 341.669 152.258 343.355 153.672L350.869 159.978L347.09 164.483L340.172 158.678C339.437 158.061 338.702 157.771 337.967 157.806C337.216 157.83 336.571 158.163 336.031 158.806C335.466 159.48 335.237 160.189 335.344 160.932C335.436 161.662 335.85 162.336 336.586 162.953L343.503 168.757L339.723 173.261L326.831 162.443L330.611 157.939L332.449 159.482C332.201 158.595 332.184 157.666 332.397 156.697C332.595 155.714 333.06 154.786 333.793 153.913ZM345.868 152.823C344.536 151.705 343.603 150.452 343.07 149.065C342.536 147.678 342.413 146.269 342.7 144.838C342.999 143.393 343.682 142.034 344.749 140.762C346.125 139.123 347.734 138.123 349.576 137.763C351.403 137.391 353.256 137.718 355.135 138.746L351.124 143.526C350.05 143.095 349.179 143.278 348.51 144.075C348.034 144.641 347.893 145.293 348.085 146.028C348.274 146.736 348.821 147.469 349.725 148.227C350.629 148.986 351.454 149.403 352.198 149.48C352.956 149.541 353.573 149.289 354.049 148.722C354.73 147.91 354.759 147.02 354.135 146.053L358.146 141.273C359.469 142.931 360.113 144.699 360.079 146.576C360.044 148.453 359.339 150.211 357.964 151.85C356.897 153.122 355.677 154.031 354.305 154.577C352.946 155.107 351.537 155.231 350.079 154.946C348.62 154.662 347.217 153.955 345.868 152.823ZM358.765 124.153C359.999 122.682 361.474 121.935 363.19 121.913C364.903 121.862 366.602 122.544 368.288 123.958L375.803 130.264L372.023 134.768L365.106 128.964C364.37 128.347 363.635 128.056 362.9 128.092C362.149 128.115 361.504 128.449 360.964 129.092C360.399 129.766 360.17 130.475 360.277 131.218C360.37 131.948 360.783 132.622 361.519 133.239L368.436 139.043L364.657 143.547L347.65 129.277L351.43 124.773L357.382 129.768C357.134 128.881 357.117 127.952 357.33 126.983C357.541 125.985 358.019 125.041 358.765 124.153Z" fill="#0D2260"/>
<path d="M256.139 266L239.992 228.059C255.545 222.313 270.107 214.586 283.58 205.572L256.139 266ZM181.941 170.008L144 153.861L204.428 126.42C195.414 139.893 187.687 154.455 181.941 170.008ZM340.145 69.8553C340.145 69.8553 291.109 48.8441 235.039 104.924C213.344 126.618 200.367 150.493 191.946 171.395C189.173 178.825 191.055 186.948 196.503 192.495L217.604 213.497C223.052 219.044 231.175 220.827 238.605 218.054C259.805 209.93 283.382 196.656 305.076 174.961C361.146 118.891 340.145 69.8553 340.145 69.8553ZM270.107 139.893C262.38 132.166 262.38 119.585 270.107 111.858C277.834 104.131 290.415 104.131 298.142 111.858C305.77 119.585 305.869 132.166 298.142 139.893C290.415 147.62 277.834 147.62 270.107 139.893ZM187.885 264.118L223.944 228.059C220.576 227.167 217.307 225.681 214.335 223.601L173.917 264.118H187.885ZM145.882 264.118H159.85L207.103 216.964L193.036 202.996L145.882 250.15V264.118ZM145.882 236.083L186.399 195.665C184.319 192.693 182.833 189.523 181.941 186.056L145.882 222.115V236.083Z" fill="#1E40C8"/>
<defs>
<filter id="filter0_di" x="2.35287" y="0" width="525.588" height="372.9" filterUnits="userSpaceOnUse" color-interpolation-filters="sRGB">
<feFlood flood-opacity="0" result="BackgroundImageFix"/>
<feColorMatrix in="SourceAlpha" type="matrix" values="0 0 0 0 0 0 0 0 0 0 0 0 0 0 0 0 0 0 127 0"/>
<feOffset dy="20"/>
<feGaussianBlur stdDeviation="20"/>
<feColorMatrix type="matrix" values="0 0 0 0 0 0 0 0 0 0 0 0 0 0 0 0 0 0 0.05 0"/>
<feBlend mode="normal" in2="BackgroundImageFix" result="effect1_dropShadow"/>
<feBlend mode="normal" in="SourceGraphic" in2="effect1_dropShadow" result="shape"/>
<feColorMatrix in="SourceAlpha" type="matrix" values="0 0 0 0 0 0 0 0 0 0 0 0 0 0 0 0 0 0 127 0" result="hardAlpha"/>
<feOffset dy="3"/>
<feGaussianBlur stdDeviation="1.5"/>
<feComposite in2="hardAlpha" operator="arithmetic" k2="-1" k3="1"/>
<feColorMatrix type="matrix" values="0 0 0 0 1 0 0 0 0 1 0 0 0 0 1 0 0 0 1 0"/>
<feBlend mode="normal" in2="shape" result="effect2_innerShadow"/>
</filter>
<linearGradient id="paint0_linear" x1="217.941" y1="312.9" x2="312.353" y2="312.9" gradientUnits="userSpaceOnUse">
<stop stop-color="#BCBDBF"/>
<stop offset="0.0975965" stop-color="#D8D8DF"/>
<stop offset="0.888214" stop-color="#D8D8DF"/>
<stop offset="1" stop-color="#ADAABD"/>
</linearGradient>
<linearGradient id="paint1_linear" x1="0" y1="312.899" x2="0" y2="320" gradientUnits="userSpaceOnUse">
<stop stop-color="white"/>
<stop offset="1" stop-color="#CDCBD5"/>
</linearGradient>
</defs>
</svg>
